<svg width="172" height="39" viewBox="0 0 172 39" fill="none" xmlns="http://www.w3.org/2000/svg">
<path d="M46 31L65.9997 2L76 16.5L65.9997 31H46Z" fill="#F7C600"/>
<path d="M2.02273 31V7.72727H6.94318V17.3295H16.9318V7.72727H21.8409V31H16.9318V21.3864H6.94318V31H2.02273ZM34.1477 31H25.8977V7.72727H34.2159C36.5568 7.72727 38.572 8.19318 40.2614 9.125C41.9508 10.0492 43.25 11.3788 44.1591 13.1136C45.0758 14.8485 45.5341 16.9242 45.5341 19.3409C45.5341 21.7652 45.0758 23.8485 44.1591 25.5909C43.25 27.3333 41.9432 28.6705 40.2386 29.6023C38.5417 30.5341 36.5114 31 34.1477 31ZM30.8182 26.7841H33.9432C35.3977 26.7841 36.6212 26.5265 37.6136 26.0114C38.6136 25.4886 39.3636 24.6818 39.8636 23.5909C40.3712 22.4924 40.625 21.0758 40.625 19.3409C40.625 17.6212 40.3712 16.2159 39.8636 15.125C39.3636 14.0341 38.6174 13.2311 37.625 12.7159C36.6326 12.2008 35.4091 11.9432 33.9545 11.9432H30.8182V26.7841ZM57.0426 31.3409C55.2472 31.3409 53.7017 30.9773 52.4062 30.25C51.1184 29.5152 50.1259 28.4773 49.429 27.1364C48.732 25.7879 48.3835 24.1932 48.3835 22.3523C48.3835 20.5568 48.732 18.9811 49.429 17.625C50.1259 16.2689 51.107 15.2121 52.3722 14.4545C53.6449 13.697 55.1373 13.3182 56.8494 13.3182C58.0009 13.3182 59.0729 13.5038 60.0653 13.875C61.0653 14.2386 61.9366 14.7879 62.679 15.5227C63.429 16.2576 64.0123 17.1818 64.429 18.2955C64.8456 19.4015 65.054 20.697 65.054 22.1818V23.5114H50.3153V20.5114H60.4972C60.4972 19.8144 60.3456 19.197 60.0426 18.6591C59.7396 18.1212 59.3191 17.7008 58.7812 17.3977C58.2509 17.0871 57.6335 16.9318 56.929 16.9318C56.1941 16.9318 55.5426 17.1023 54.9744 17.4432C54.4138 17.7765 53.9744 18.2273 53.6562 18.7955C53.3381 19.3561 53.1752 19.9811 53.1676 20.6705V23.5227C53.1676 24.3864 53.3267 25.1326 53.6449 25.7614C53.9706 26.3902 54.429 26.875 55.0199 27.2159C55.6108 27.5568 56.3116 27.7273 57.1222 27.7273C57.66 27.7273 58.1525 27.6515 58.5994 27.5C59.0464 27.3485 59.429 27.1212 59.7472 26.8182C60.0653 26.5152 60.3078 26.1439 60.4744 25.7045L64.9517 26C64.7244 27.0758 64.2585 28.0152 63.554 28.8182C62.857 29.6136 61.9555 30.2348 60.8494 30.6818C59.7509 31.1212 58.482 31.3409 57.0426 31.3409ZM71.946 13.5455L75.1506 19.6477L78.4347 13.5455H83.4006L78.3438 22.2727L83.5369 31H78.5938L75.1506 24.9659L71.7642 31H66.7642L71.946 22.2727L66.946 13.5455H71.946ZM86.2756 37.5455V13.5455H91.0483V16.4773H91.2642C91.4763 16.0076 91.7831 15.5303 92.1847 15.0455C92.5938 14.553 93.1241 14.1439 93.7756 13.8182C94.4347 13.4848 95.2528 13.3182 96.2301 13.3182C97.5028 13.3182 98.6771 13.6515 99.7528 14.3182C100.829 14.9773 101.688 15.9735 102.332 17.3068C102.976 18.6326 103.298 20.2955 103.298 22.2955C103.298 24.2424 102.984 25.8864 102.355 27.2273C101.734 28.5606 100.885 29.572 99.8097 30.2614C98.7415 30.9432 97.5445 31.2841 96.2188 31.2841C95.2794 31.2841 94.4801 31.1288 93.821 30.8182C93.1695 30.5076 92.6354 30.1174 92.2188 29.6477C91.8021 29.1705 91.4839 28.6894 91.2642 28.2045H91.1165V37.5455H86.2756ZM91.0142 22.2727C91.0142 23.3106 91.1581 24.2159 91.446 24.9886C91.7339 25.7614 92.1506 26.3636 92.696 26.7955C93.2415 27.2197 93.9044 27.4318 94.6847 27.4318C95.4725 27.4318 96.1392 27.2159 96.6847 26.7841C97.2301 26.3447 97.643 25.7386 97.9233 24.9659C98.2112 24.1856 98.3551 23.2879 98.3551 22.2727C98.3551 21.2652 98.215 20.3788 97.9347 19.6136C97.6544 18.8485 97.2415 18.25 96.696 17.8182C96.1506 17.3864 95.4801 17.1705 94.6847 17.1705C93.8968 17.1705 93.2301 17.3788 92.6847 17.7955C92.1468 18.2121 91.7339 18.803 91.446 19.5682C91.1581 20.3333 91.0142 21.2348 91.0142 22.2727ZM106.526 31V13.5455H111.219V16.5909H111.401C111.719 15.5076 112.253 14.6894 113.003 14.1364C113.753 13.5758 114.616 13.2955 115.594 13.2955C115.836 13.2955 116.098 13.3106 116.378 13.3409C116.658 13.3712 116.904 13.4129 117.116 13.4659V17.7614C116.889 17.6932 116.575 17.6326 116.173 17.5795C115.772 17.5265 115.404 17.5 115.071 17.5C114.359 17.5 113.723 17.6553 113.162 17.9659C112.609 18.2689 112.17 18.6932 111.844 19.2386C111.526 19.7841 111.366 20.4129 111.366 21.125V31H106.526ZM126.761 31.3409C124.966 31.3409 123.42 30.9773 122.125 30.25C120.837 29.5152 119.845 28.4773 119.148 27.1364C118.451 25.7879 118.102 24.1932 118.102 22.3523C118.102 20.5568 118.451 18.9811 119.148 17.625C119.845 16.2689 120.826 15.2121 122.091 14.4545C123.364 13.697 124.856 13.3182 126.568 13.3182C127.72 13.3182 128.792 13.5038 129.784 13.875C130.784 14.2386 131.655 14.7879 132.398 15.5227C133.148 16.2576 133.731 17.1818 134.148 18.2955C134.564 19.4015 134.773 20.697 134.773 22.1818V23.5114H120.034V20.5114H130.216C130.216 19.8144 130.064 19.197 129.761 18.6591C129.458 18.1212 129.038 17.7008 128.5 17.3977C127.97 17.0871 127.352 16.9318 126.648 16.9318C125.913 16.9318 125.261 17.1023 124.693 17.4432C124.133 17.7765 123.693 18.2273 123.375 18.7955C123.057 19.3561 122.894 19.9811 122.886 20.6705V23.5227C122.886 24.3864 123.045 25.1326 123.364 25.7614C123.689 26.3902 124.148 26.875 124.739 27.2159C125.33 27.5568 126.03 27.7273 126.841 27.7273C127.379 27.7273 127.871 27.6515 128.318 27.5C128.765 27.3485 129.148 27.1212 129.466 26.8182C129.784 26.5152 130.027 26.1439 130.193 25.7045L134.67 26C134.443 27.0758 133.977 28.0152 133.273 28.8182C132.576 29.6136 131.674 30.2348 130.568 30.6818C129.47 31.1212 128.201 31.3409 126.761 31.3409ZM152.455 18.5227L148.023 18.7955C147.947 18.4167 147.784 18.0758 147.534 17.7727C147.284 17.4621 146.955 17.2159 146.545 17.0341C146.144 16.8447 145.663 16.75 145.102 16.75C144.352 16.75 143.72 16.9091 143.205 17.2273C142.689 17.5379 142.432 17.9545 142.432 18.4773C142.432 18.8939 142.598 19.2462 142.932 19.5341C143.265 19.822 143.837 20.053 144.648 20.2273L147.807 20.8636C149.504 21.2121 150.769 21.7727 151.602 22.5455C152.436 23.3182 152.852 24.3333 152.852 25.5909C152.852 26.7348 152.515 27.7386 151.841 28.6023C151.174 29.4659 150.258 30.1402 149.091 30.625C147.932 31.1023 146.595 31.3409 145.08 31.3409C142.769 31.3409 140.928 30.8598 139.557 29.8977C138.193 28.928 137.394 27.6098 137.159 25.9432L141.92 25.6932C142.064 26.3977 142.413 26.9356 142.966 27.3068C143.519 27.6705 144.227 27.8523 145.091 27.8523C145.939 27.8523 146.621 27.6894 147.136 27.3636C147.659 27.0303 147.924 26.6023 147.932 26.0795C147.924 25.6402 147.739 25.2803 147.375 25C147.011 24.7121 146.451 24.4924 145.693 24.3409L142.67 23.7386C140.966 23.3977 139.697 22.8068 138.864 21.9659C138.038 21.125 137.625 20.053 137.625 18.75C137.625 17.6288 137.928 16.6629 138.534 15.8523C139.148 15.0417 140.008 14.4167 141.114 13.9773C142.227 13.5379 143.53 13.3182 145.023 13.3182C147.227 13.3182 148.962 13.7841 150.227 14.7159C151.5 15.6477 152.242 16.9167 152.455 18.5227ZM170.423 18.5227L165.991 18.7955C165.916 18.4167 165.753 18.0758 165.503 17.7727C165.253 17.4621 164.923 17.2159 164.514 17.0341C164.113 16.8447 163.632 16.75 163.071 16.75C162.321 16.75 161.688 16.9091 161.173 17.2273C160.658 17.5379 160.401 17.9545 160.401 18.4773C160.401 18.8939 160.567 19.2462 160.901 19.5341C161.234 19.822 161.806 20.053 162.616 20.2273L165.776 20.8636C167.473 21.2121 168.738 21.7727 169.571 22.5455C170.404 23.3182 170.821 24.3333 170.821 25.5909C170.821 26.7348 170.484 27.7386 169.81 28.6023C169.143 29.4659 168.226 30.1402 167.06 30.625C165.901 31.1023 164.563 31.3409 163.048 31.3409C160.738 31.3409 158.897 30.8598 157.526 29.8977C156.162 28.928 155.363 27.6098 155.128 25.9432L159.889 25.6932C160.033 26.3977 160.382 26.9356 160.935 27.3068C161.488 27.6705 162.196 27.8523 163.06 27.8523C163.908 27.8523 164.59 27.6894 165.105 27.3636C165.628 27.0303 165.893 26.6023 165.901 26.0795C165.893 25.6402 165.707 25.2803 165.344 25C164.98 24.7121 164.42 24.4924 163.662 24.3409L160.639 23.7386C158.935 23.3977 157.666 22.8068 156.832 21.9659C156.007 21.125 155.594 20.053 155.594 18.75C155.594 17.6288 155.897 16.6629 156.503 15.8523C157.116 15.0417 157.976 14.4167 159.082 13.9773C160.196 13.5379 161.499 13.3182 162.991 13.3182C165.196 13.3182 166.931 13.7841 168.196 14.7159C169.469 15.6477 170.211 16.9167 170.423 18.5227Z" fill="black"/>
<path d="M134.92 14.5229C134.99 14.4873 135.048 14.4329 135.089 14.3659C135.13 14.2989 135.152 14.2218 135.152 14.1432L135.14 11.2316L136.659 10.4641C136.97 10.3074 137.205 10.0338 137.314 9.70363C137.422 9.37341 137.395 9.01359 137.238 8.70332C137.082 8.39305 136.808 8.15775 136.478 8.04919C136.148 7.94062 135.788 7.96767 135.478 8.1244L133.958 8.89186L131.622 7.15442C131.559 7.10773 131.484 7.07945 131.405 7.07272C131.327 7.06598 131.248 7.08106 131.178 7.11628L129.913 7.75519C129.851 7.78593 129.798 7.83139 129.757 7.88761C129.716 7.94382 129.69 8.0091 129.681 8.07776C129.672 8.14581 129.679 8.21506 129.702 8.27958C129.726 8.34411 129.765 8.40199 129.815 8.44831L131.596 10.0853L130.179 10.8009L129.602 10.2247C129.538 10.1622 129.457 10.1212 129.368 10.1075C129.28 10.0939 129.19 10.1083 129.111 10.1487L128.18 10.6188C128.13 10.6444 128.085 10.6797 128.049 10.7226C128.012 10.7656 127.985 10.8153 127.968 10.869C127.933 10.9752 127.942 11.0906 127.992 11.1905L129.751 14.6735C129.802 14.7742 129.891 14.8506 129.998 14.8859C130.106 14.9211 130.222 14.9124 130.323 14.8615L131.273 14.3818C131.352 14.3418 131.418 14.2777 131.459 14.1987C131.5 14.1196 131.516 14.0296 131.503 13.9413L131.361 13.1406L132.774 12.4269L133.035 14.8313C133.042 14.8996 133.066 14.9651 133.104 15.0223C133.142 15.0795 133.193 15.1266 133.253 15.1596C133.314 15.1927 133.382 15.2103 133.452 15.211C133.521 15.2117 133.589 15.1955 133.651 15.1637L134.92 14.5229ZM133.555 11.7272C133.548 11.658 133.525 11.5916 133.486 11.5337C133.448 11.4758 133.396 11.4282 133.335 11.395C133.274 11.3624 133.207 11.3447 133.139 11.3437C133.07 11.3427 133.002 11.3582 132.941 11.389L130.723 12.5095C130.643 12.5501 130.577 12.6149 130.536 12.6947C130.495 12.7745 130.481 12.8652 130.494 12.9539L130.614 13.7565L130.317 13.9061L128.942 11.1828L129.238 11.0331L129.813 11.6055C129.876 11.6691 129.958 11.7111 130.047 11.7254C130.135 11.7398 130.226 11.7257 130.306 11.6853L132.524 10.5648C132.586 10.5338 132.638 10.4884 132.678 10.4326C132.718 10.3768 132.744 10.3121 132.753 10.2442C132.763 10.1754 132.755 10.1053 132.732 10.04C132.708 9.97476 132.668 9.91633 132.617 9.86983L130.838 8.23668L131.325 7.99109L133.659 9.72473C133.722 9.7724 133.797 9.80157 133.876 9.80898C133.955 9.81639 134.034 9.80174 134.105 9.76667L135.848 8.88601C135.957 8.83105 136.083 8.82157 136.199 8.85964C136.315 8.89771 136.41 8.98021 136.465 9.08901C136.52 9.1978 136.53 9.32397 136.492 9.43976C136.454 9.55555 136.371 9.65148 136.262 9.70644L134.519 10.5871C134.449 10.6233 134.39 10.6783 134.349 10.7461C134.308 10.8138 134.287 10.8915 134.288 10.9706L134.298 13.8784L133.816 14.1221L133.555 11.7272Z" fill="#F7C600"/>
</svg>
