<svg xmlns="http://www.w3.org/2000/svg" width="177.663" height="44" viewBox="0 0 177.663 44">
  <g transform="translate(-21.29 2.377)">
    <g transform="translate(160.848 -2.377)">
      <path d="M127.93,41.623l25.4-44,12.7,22-12.7,22Z" transform="translate(-127.93 2.377)" fill="#f7c600"/>
      <path d="M127.93-2.377l25.4,44,12.7-22-12.7-22Z" transform="translate(-127.93 2.377)" fill="#f7c600"/>
      <path d="M135.158,20.049l3.242-5.615,12.7,22Z" transform="translate(-125.698 7.566)" fill="#cc9200"/>
    </g>
    <g transform="translate(21.29 8.892)">
      <path d="M36.548,14.714v10.1H33.3l-.34-.968a6.718,6.718,0,0,1-4,1.23,6.894,6.894,0,0,1-5.667-2.46q-2-2.46-2-6.962a11.077,11.077,0,0,1,1.06-4.986,7.694,7.694,0,0,1,3.009-3.285,8.816,8.816,0,0,1,4.569-1.152,8.538,8.538,0,0,1,3.99.877,5.347,5.347,0,0,1,2.449,2.473l-2.409,2.068a4.269,4.269,0,0,0-1.649-1.531,4.934,4.934,0,0,0-2.328-.537,3.887,3.887,0,0,0-3.338,1.544A7.571,7.571,0,0,0,25.5,15.657q0,6.36,4.057,6.36a5.766,5.766,0,0,0,2.828-.707V17.672H28.566V14.714Z" transform="translate(-21.29 -6.234)" fill="#fff"/>
      <path d="M35.851,24.1a3.521,3.521,0,0,1-.942-2.644V6.434h3.717v15.1q0,.942,1.152.942a4.163,4.163,0,0,0,1.544-.366l.55,1.937a5.3,5.3,0,0,1-3.324.968A3.709,3.709,0,0,1,35.851,24.1Z" transform="translate(-17.086 -6.172)" fill="#fff"/>
      <path d="M41.768,22.038a6.726,6.726,0,0,1-1.819-5,6.728,6.728,0,0,1,1.819-5,6.876,6.876,0,0,1,5.065-1.806A6.876,6.876,0,0,1,51.9,12.04a6.728,6.728,0,0,1,1.819,5,6.726,6.726,0,0,1-1.819,5,6.876,6.876,0,0,1-5.065,1.806A6.876,6.876,0,0,1,41.768,22.038Zm7.394-2.015A4.737,4.737,0,0,0,50,17.039a4.74,4.74,0,0,0-.838-2.984,3.065,3.065,0,0,0-4.659,0,4.74,4.74,0,0,0-.838,2.984,4.737,4.737,0,0,0,.838,2.984,3.065,3.065,0,0,0,4.659,0Z" transform="translate(-15.53 -4.999)" fill="#fff"/>
      <path d="M57.191,24.494a4.445,4.445,0,0,1-1.636-1.361H55.5q0,1.231-.026,1.623H51.969q.079-.707.079-3.533V6.434h3.717v6.439h.052q1.021-1.466,3.718-1.466a4.779,4.779,0,0,1,3.925,1.741A7.5,7.5,0,0,1,64.873,18a8.124,8.124,0,0,1-1.466,5.156,4.876,4.876,0,0,1-4.057,1.858A4.734,4.734,0,0,1,57.191,24.494Zm3.338-3.363a5.922,5.922,0,0,0,.654-3.075,5.323,5.323,0,0,0-.654-2.905,2.17,2.17,0,0,0-1.938-.995,2.842,2.842,0,0,0-2,.759,2.4,2.4,0,0,0-.826,1.832v2.8a2.505,2.505,0,0,0,.772,1.924,2.893,2.893,0,0,0,2.055.72A2.135,2.135,0,0,0,60.529,21.131Z" transform="translate(-11.82 -6.172)" fill="#fff"/>
      <path d="M75.755,18.4H66.75a2.81,2.81,0,0,0,.982,1.754,3.246,3.246,0,0,0,2.028.576,4.852,4.852,0,0,0,1.963-.366A5.266,5.266,0,0,0,73.4,19.107l1.989,1.885a5.394,5.394,0,0,1-2.369,2.068,7.862,7.862,0,0,1-3.494.785,6.454,6.454,0,0,1-4.841-1.793,6.787,6.787,0,0,1-1.755-4.96,6.965,6.965,0,0,1,1.755-5.025A6.347,6.347,0,0,1,69.5,10.234a5.914,5.914,0,0,1,4.593,1.819,7.153,7.153,0,0,1,1.663,5.012ZM72.09,15.757a2.383,2.383,0,0,0-.707-1.819,2.706,2.706,0,0,0-1.937-.667,2.472,2.472,0,0,0-1.806.694,3.561,3.561,0,0,0-.941,1.95h5.39Z" transform="translate(-8.437 -4.999)" fill="#fff"/>
      <path d="M74.608,6.434H87.276v3.35H78.822v4.371h7.9v3.35h-7.9v7.25H74.608Z" transform="translate(-4.832 -6.172)" fill="#fff"/>
      <path d="M87.681,23.295a4.046,4.046,0,0,1-2.172-3.664,3.481,3.481,0,0,1,1.623-3.088,8.435,8.435,0,0,1,4.659-1.073h1.832v-.523a1.736,1.736,0,0,0-.576-1.387,2.327,2.327,0,0,0-1.572-.5,6.606,6.606,0,0,0-2.263.393,4.973,4.973,0,0,0-1.793,1.073l-1.6-2.12a8.685,8.685,0,0,1,2.655-1.584,8.588,8.588,0,0,1,3.1-.589A6.54,6.54,0,0,1,95.8,11.477a4.121,4.121,0,0,1,1.544,3.389v5.889a12.46,12.46,0,0,0,.1,1.492,9.462,9.462,0,0,0,.236,1.335H94.356a4.84,4.84,0,0,1-.236-.654,5.4,5.4,0,0,1-.132-.811h-.051a4.918,4.918,0,0,1-3.952,1.727A4.774,4.774,0,0,1,87.681,23.295Zm5.2-2.787a1.835,1.835,0,0,0,.746-1.5V17.9H91.686a3.337,3.337,0,0,0-1.884.445,1.454,1.454,0,0,0-.654,1.283,1.316,1.316,0,0,0,.47,1.086,2.131,2.131,0,0,0,1.361.38A2.972,2.972,0,0,0,92.877,20.507Z" transform="translate(-1.467 -4.999)" fill="#fff"/>
      <path d="M96.666,13.689q0-2.224-.077-3.193h3.532a22.521,22.521,0,0,1,.1,2.3v.262h.1a4.08,4.08,0,0,1,1.793-2.055,5.7,5.7,0,0,1,2.972-.772,5.017,5.017,0,0,1,.81.079v2.905a2.476,2.476,0,0,0-.522-.026,4.8,4.8,0,0,0-2.488.681,5.183,5.183,0,0,0-1.831,1.806,4.6,4.6,0,0,0-.682,2.434v5.47H96.666Z" transform="translate(1.954 -4.999)" fill="#fff"/>
      <path d="M116.334,18.4h-9.005a2.81,2.81,0,0,0,.982,1.754,3.247,3.247,0,0,0,2.03.576,4.861,4.861,0,0,0,1.963-.366,5.277,5.277,0,0,0,1.674-1.256l1.989,1.885a5.394,5.394,0,0,1-2.369,2.068,7.862,7.862,0,0,1-3.494.785,6.454,6.454,0,0,1-4.841-1.793,6.787,6.787,0,0,1-1.755-4.96,6.965,6.965,0,0,1,1.755-5.025,6.347,6.347,0,0,1,4.815-1.832,5.914,5.914,0,0,1,4.593,1.819,7.153,7.153,0,0,1,1.663,5.012Zm-3.666-2.644a2.383,2.383,0,0,0-.707-1.819,2.706,2.706,0,0,0-1.937-.667,2.472,2.472,0,0,0-1.806.694,3.561,3.561,0,0,0-.941,1.95h5.39Z" transform="translate(4.089 -4.999)" fill="#fff"/>
      <path d="M114.926,13.689q0-2.224-.077-3.193h3.532a22.516,22.516,0,0,1,.1,2.3v.262h.1a4.08,4.08,0,0,1,1.793-2.055,5.7,5.7,0,0,1,2.972-.772,5.031,5.031,0,0,1,.81.079v2.905a2.494,2.494,0,0,0-.523-.026,4.8,4.8,0,0,0-2.487.681,5.183,5.183,0,0,0-1.831,1.806,4.6,4.6,0,0,0-.682,2.434v5.47h-3.717Z" transform="translate(7.59 -4.999)" fill="#fff"/>
    </g>
  </g>
</svg>
