<svg xmlns="http://www.w3.org/2000/svg" width="243.921" height="60.409" viewBox="0 0 243.921 60.409">
  <g transform="translate(-42.953 -58.19)">
    <g transform="translate(21.663 60.566)">
      <g transform="translate(212.895 -2.377)">
        <path d="M127.93,58.033,162.807-2.377l17.439,30.2-17.439,30.2Z" transform="translate(-127.93 2.377)" fill="#f7c600"/>
        <path d="M127.93-2.377l34.878,60.409,17.439-30.2-17.439-30.2Z" transform="translate(-127.93 2.377)" fill="#f7c600"/>
        <path d="M135.158,22.143l4.451-7.709,17.439,30.2Z" transform="translate(-122.17 15.771)" fill="#cc9200"/>
      </g>
      <g transform="translate(21.29 13.095)">
        <path d="M42.238,17.877V31.748H37.782l-.467-1.33a9.223,9.223,0,0,1-5.5,1.689,9.465,9.465,0,0,1-7.78-3.378q-2.749-3.377-2.747-9.559a15.208,15.208,0,0,1,1.455-6.846,10.564,10.564,0,0,1,4.131-4.51,12.1,12.1,0,0,1,6.272-1.581,11.722,11.722,0,0,1,5.478,1.2,7.341,7.341,0,0,1,3.362,3.4l-3.308,2.839a5.862,5.862,0,0,0-2.264-2.1,6.774,6.774,0,0,0-3.2-.737,5.337,5.337,0,0,0-4.583,2.12,10.394,10.394,0,0,0-1.563,6.217q0,8.732,5.57,8.732a7.916,7.916,0,0,0,3.883-.97V21.938H31.28V17.877Z" transform="translate(-21.29 -6.234)" fill="#1b1b1b"/>
        <path d="M36.2,30.69a4.834,4.834,0,0,1-1.294-3.629V6.434h5.1V27.168q0,1.294,1.581,1.294a5.716,5.716,0,0,0,2.12-.5l.755,2.659a7.27,7.27,0,0,1-4.564,1.33A5.092,5.092,0,0,1,36.2,30.69Z" transform="translate(-10.439 -6.075)" fill="#1b1b1b"/>
        <path d="M42.446,26.441a9.234,9.234,0,0,1-2.5-6.864,9.237,9.237,0,0,1,2.5-6.864,9.44,9.44,0,0,1,6.953-2.48,9.44,9.44,0,0,1,6.953,2.48,9.237,9.237,0,0,1,2.5,6.864,9.234,9.234,0,0,1-2.5,6.864A9.44,9.44,0,0,1,49.4,28.92,9.44,9.44,0,0,1,42.446,26.441ZM52.6,23.674a6.5,6.5,0,0,0,1.15-4.1,6.507,6.507,0,0,0-1.15-4.1,4.208,4.208,0,0,0-6.4,0,6.507,6.507,0,0,0-1.15,4.1,6.5,6.5,0,0,0,1.15,4.1,4.208,4.208,0,0,0,6.4,0Z" transform="translate(-6.424 -3.047)" fill="#1b1b1b"/>
        <path d="M59.138,31.229a6.1,6.1,0,0,1-2.246-1.869H56.82q0,1.69-.036,2.228H51.969q.108-.97.108-4.851V6.434h5.1v8.84h.072q1.4-2.013,5.1-2.012a6.561,6.561,0,0,1,5.388,2.39,10.291,10.291,0,0,1,1.94,6.666A11.154,11.154,0,0,1,67.673,29.4a6.694,6.694,0,0,1-5.57,2.551A6.5,6.5,0,0,1,59.138,31.229Zm4.583-4.618a8.131,8.131,0,0,0,.9-4.222,7.309,7.309,0,0,0-.9-3.989,2.979,2.979,0,0,0-2.661-1.366,3.9,3.9,0,0,0-2.747,1.042,3.3,3.3,0,0,0-1.134,2.515v3.845a3.439,3.439,0,0,0,1.06,2.641,3.971,3.971,0,0,0,2.821.988A2.932,2.932,0,0,0,63.722,26.611Z" transform="translate(3.153 -6.075)" fill="#1b1b1b"/>
        <path d="M80.539,21.446H68.175a3.858,3.858,0,0,0,1.348,2.408,4.456,4.456,0,0,0,2.785.791,6.661,6.661,0,0,0,2.7-.5,7.23,7.23,0,0,0,2.3-1.725L80.034,25a7.406,7.406,0,0,1-3.252,2.839,10.8,10.8,0,0,1-4.8,1.078,8.86,8.86,0,0,1-6.646-2.462,9.319,9.319,0,0,1-2.409-6.81,9.562,9.562,0,0,1,2.409-6.9,8.714,8.714,0,0,1,6.61-2.515,8.12,8.12,0,0,1,6.307,2.5,9.821,9.821,0,0,1,2.284,6.882Zm-5.033-3.629a3.272,3.272,0,0,0-.97-2.5,3.716,3.716,0,0,0-2.659-.916,3.394,3.394,0,0,0-2.48.952,4.889,4.889,0,0,0-1.292,2.677h7.4Z" transform="translate(11.886 -3.047)" fill="#1b1b1b"/>
        <path d="M74.608,6.434H92v4.6H80.394v6H91.246v4.6H80.394v9.954H74.608Z" transform="translate(21.191 -6.075)" fill="#1b1b1b"/>
        <path d="M88.492,28.166a5.556,5.556,0,0,1-2.983-5.031,4.779,4.779,0,0,1,2.228-4.24,11.581,11.581,0,0,1,6.4-1.473h2.515V16.7a2.384,2.384,0,0,0-.791-1.9,3.194,3.194,0,0,0-2.158-.683,9.069,9.069,0,0,0-3.107.539,6.827,6.827,0,0,0-2.462,1.473L85.94,13.217a11.924,11.924,0,0,1,3.646-2.174,11.791,11.791,0,0,1,4.258-.809,8.979,8.979,0,0,1,5.787,1.707,5.657,5.657,0,0,1,2.12,4.654V24.68a17.1,17.1,0,0,0,.144,2.048,12.991,12.991,0,0,0,.323,1.833H97.655a6.644,6.644,0,0,1-.323-.9,7.415,7.415,0,0,1-.181-1.114h-.07a6.752,6.752,0,0,1-5.426,2.372A6.554,6.554,0,0,1,88.492,28.166Zm7.133-3.827a2.519,2.519,0,0,0,1.024-2.066V20.763H93.99a4.581,4.581,0,0,0-2.587.611,2,2,0,0,0-.9,1.761,1.807,1.807,0,0,0,.645,1.491,2.926,2.926,0,0,0,1.869.521A4.08,4.08,0,0,0,95.625,24.338Z" transform="translate(29.876 -3.047)" fill="#1b1b1b"/>
        <path d="M96.7,14.977q0-3.054-.106-4.384h4.849a30.916,30.916,0,0,1,.144,3.162v.359h.144a5.6,5.6,0,0,1,2.462-2.821,7.826,7.826,0,0,1,4.08-1.06,6.888,6.888,0,0,1,1.112.108v3.989a3.4,3.4,0,0,0-.717-.036,6.6,6.6,0,0,0-3.416.934,7.117,7.117,0,0,0-2.514,2.48,6.321,6.321,0,0,0-.936,3.342v7.51H96.7Z" transform="translate(38.704 -3.047)" fill="#1b1b1b"/>
        <path d="M121.118,21.446H108.755a3.858,3.858,0,0,0,1.348,2.408,4.458,4.458,0,0,0,2.787.791,6.673,6.673,0,0,0,2.7-.5,7.244,7.244,0,0,0,2.3-1.725L120.613,25a7.406,7.406,0,0,1-3.252,2.839,10.8,10.8,0,0,1-4.8,1.078,8.86,8.86,0,0,1-6.646-2.462,9.319,9.319,0,0,1-2.409-6.81,9.562,9.562,0,0,1,2.409-6.9,8.714,8.714,0,0,1,6.61-2.515,8.12,8.12,0,0,1,6.307,2.5,9.821,9.821,0,0,1,2.284,6.882Zm-5.033-3.629a3.272,3.272,0,0,0-.97-2.5,3.716,3.716,0,0,0-2.659-.916,3.394,3.394,0,0,0-2.48.952,4.889,4.889,0,0,0-1.292,2.677h7.4Z" transform="translate(44.217 -3.047)" fill="#1b1b1b"/>
        <path d="M114.955,14.977q0-3.054-.106-4.384H119.7a30.915,30.915,0,0,1,.144,3.162v.359h.144a5.6,5.6,0,0,1,2.462-2.821,7.822,7.822,0,0,1,4.08-1.06,6.907,6.907,0,0,1,1.112.108v3.989a3.423,3.423,0,0,0-.719-.036,6.6,6.6,0,0,0-3.414.934,7.117,7.117,0,0,0-2.514,2.48,6.321,6.321,0,0,0-.936,3.342v7.51h-5.1Z" transform="translate(53.253 -3.047)" fill="#1b1b1b"/>
      </g>
    </g>
  </g>
</svg>
