<svg width="124" height="30" viewBox="0 0 124 30" fill="none" xmlns="http://www.w3.org/2000/svg">
<path d="M28 24L41.3331 0L48 12L41.3331 24H28Z" fill="#F7C600"/>
<path d="M1.45384 24V7.27273H4.99041V14.1744H12.1697V7.27273H15.6982V24H12.1697V17.0902H4.99041V24H1.45384ZM24.5437 24H18.614V7.27273H24.5927C26.2752 7.27273 27.7236 7.6076 28.9379 8.27734C30.1521 8.94164 31.0859 9.89725 31.7393 11.1442C32.3982 12.3911 32.7276 13.883 32.7276 15.62C32.7276 17.3625 32.3982 18.8598 31.7393 20.1122C31.0859 21.3646 30.1467 22.3256 28.9215 22.9954C27.7018 23.6651 26.2425 24 24.5437 24ZM22.1506 20.9698H24.3967C25.4421 20.9698 26.3215 20.7847 27.0348 20.4144C27.7536 20.0387 28.2926 19.4588 28.652 18.6747C29.0168 17.8852 29.1992 16.867 29.1992 15.62C29.1992 14.384 29.0168 13.3739 28.652 12.5898C28.2926 11.8058 27.7563 11.2286 27.043 10.8583C26.3297 10.488 25.4503 10.3029 24.4048 10.3029H22.1506V20.9698ZM40.9994 24.245C39.7089 24.245 38.5981 23.9837 37.667 23.4609C36.7413 22.9328 36.028 22.1868 35.5271 21.223C35.0261 20.2538 34.7757 19.1076 34.7757 17.7844C34.7757 16.494 35.0261 15.3614 35.5271 14.3867C36.028 13.4121 36.7332 12.6525 37.6425 12.108C38.5573 11.5634 39.6299 11.2912 40.8605 11.2912C41.6882 11.2912 42.4587 11.4246 43.172 11.6914C43.8907 11.9528 44.5169 12.3475 45.0505 12.8757C45.5896 13.4039 46.0088 14.0682 46.3083 14.8686C46.6078 15.6636 46.7575 16.5947 46.7575 17.6619V18.6175H36.1642V16.4613H43.4823C43.4823 15.9603 43.3734 15.5166 43.1556 15.13C42.9378 14.7434 42.6356 14.4412 42.249 14.2234C41.8679 14.0001 41.4241 13.8885 40.9177 13.8885C40.3895 13.8885 39.9213 14.011 39.5129 14.256C39.1099 14.4956 38.7941 14.8196 38.5654 15.228C38.3367 15.6309 38.2197 16.0801 38.2142 16.5756V18.6257C38.2142 19.2464 38.3286 19.7828 38.5573 20.2347C38.7914 20.6867 39.1208 21.0352 39.5455 21.2802C39.9703 21.5252 40.4739 21.6477 41.0566 21.6477C41.4432 21.6477 41.7971 21.5933 42.1183 21.4844C42.4396 21.3755 42.7146 21.2121 42.9433 20.9943C43.172 20.7765 43.3462 20.5097 43.466 20.1939L46.684 20.4062C46.5207 21.1795 46.1858 21.8546 45.6794 22.4318C45.1785 23.0036 44.5305 23.45 43.7355 23.7713C42.946 24.0871 42.0339 24.245 40.9994 24.245ZM51.7112 11.4545L54.0145 15.8406L56.3749 11.4545H59.9442L56.3096 17.7273L60.0422 24H56.4893L54.0145 19.663L51.5805 24H47.9868L51.7112 17.7273L48.1175 11.4545H51.7112ZM62.0106 28.7045V11.4545H65.441V13.5618H65.5961C65.7486 13.2242 65.9691 12.8812 66.2577 12.5327C66.5518 12.1787 66.9329 11.8847 67.4012 11.6506C67.8749 11.411 68.463 11.2912 69.1654 11.2912C70.0802 11.2912 70.9242 11.5308 71.6974 12.0099C72.4706 12.4837 73.0886 13.1997 73.5514 14.158C74.0142 15.1109 74.2457 16.3061 74.2457 17.7436C74.2457 19.143 74.0197 20.3246 73.5677 21.2884C73.1212 22.2467 72.5114 22.9736 71.7382 23.4691C70.9704 23.9592 70.1101 24.2042 69.1572 24.2042C68.482 24.2042 67.9076 24.0926 67.4339 23.8693C66.9656 23.6461 66.5817 23.3656 66.2822 23.0281C65.9827 22.685 65.7541 22.3393 65.5961 21.9908H65.49V28.7045H62.0106ZM65.4165 17.7273C65.4165 18.4732 65.5199 19.1239 65.7268 19.6793C65.9337 20.2347 66.2332 20.6676 66.6253 20.978C67.0173 21.2829 67.4938 21.4354 68.0546 21.4354C68.6209 21.4354 69.1001 21.2802 69.4921 20.9698C69.8841 20.654 70.1809 20.2184 70.3824 19.663C70.5893 19.1022 70.6927 18.4569 70.6927 17.7273C70.6927 17.0031 70.592 16.366 70.3905 15.8161C70.1891 15.2661 69.8923 14.8359 69.5003 14.5256C69.1082 14.2152 68.6263 14.06 68.0546 14.06C67.4883 14.06 67.0091 14.2098 66.6171 14.5092C66.2305 14.8087 65.9337 15.2334 65.7268 15.7834C65.5199 16.3333 65.4165 16.9813 65.4165 17.7273ZM76.5653 24V11.4545H79.9385V13.6435H80.0692C80.2979 12.8648 80.6817 12.2768 81.2208 11.8793C81.7599 11.4763 82.3806 11.2749 83.083 11.2749C83.2573 11.2749 83.4451 11.2857 83.6466 11.3075C83.848 11.3293 84.025 11.3593 84.1775 11.3974V14.4847C84.0141 14.4357 83.7881 14.3922 83.4996 14.354C83.211 14.3159 82.9469 14.2969 82.7073 14.2969C82.1955 14.2969 81.7381 14.4085 81.3351 14.6317C80.9376 14.8495 80.6218 15.1545 80.3877 15.5465C80.159 15.9386 80.0447 16.3905 80.0447 16.9023V24H76.5653ZM91.1097 24.245C89.8192 24.245 88.7085 23.9837 87.7773 23.4609C86.8517 22.9328 86.1384 22.1868 85.6374 21.223C85.1365 20.2538 84.886 19.1076 84.886 17.7844C84.886 16.494 85.1365 15.3614 85.6374 14.3867C86.1384 13.4121 86.8435 12.6525 87.7528 12.108C88.6676 11.5634 89.7403 11.2912 90.9709 11.2912C91.7985 11.2912 92.569 11.4246 93.2823 11.6914C94.0011 11.9528 94.6272 12.3475 95.1609 12.8757C95.6999 13.4039 96.1192 14.0682 96.4187 14.8686C96.7182 15.6636 96.8679 16.5947 96.8679 17.6619V18.6175H86.2745V16.4613H93.5927C93.5927 15.9603 93.4838 15.5166 93.266 15.13C93.0482 14.7434 92.746 14.4412 92.3594 14.2234C91.9782 14.0001 91.5344 13.8885 91.0281 13.8885C90.4999 13.8885 90.0316 14.011 89.6232 14.256C89.2203 14.4956 88.9045 14.8196 88.6758 15.228C88.4471 15.6309 88.33 16.0801 88.3246 16.5756V18.6257C88.3246 19.2464 88.4389 19.7828 88.6676 20.2347C88.9018 20.6867 89.2312 21.0352 89.6559 21.2802C90.0806 21.5252 90.5843 21.6477 91.1669 21.6477C91.5535 21.6477 91.9074 21.5933 92.2287 21.4844C92.55 21.3755 92.8249 21.2121 93.0536 20.9943C93.2823 20.7765 93.4566 20.5097 93.5763 20.1939L96.7944 20.4062C96.631 21.1795 96.2962 21.8546 95.7898 22.4318C95.2888 23.0036 94.6409 23.45 93.8459 23.7713C93.0563 24.0871 92.1443 24.245 91.1097 24.245ZM109.577 15.032L106.391 15.228C106.337 14.9557 106.22 14.7107 106.04 14.4929C105.86 14.2696 105.624 14.0927 105.33 13.962C105.041 13.8259 104.695 13.7578 104.292 13.7578C103.753 13.7578 103.299 13.8722 102.928 14.1009C102.558 14.3241 102.373 14.6236 102.373 14.9993C102.373 15.2988 102.493 15.552 102.732 15.7589C102.972 15.9658 103.383 16.1319 103.966 16.2571L106.236 16.7145C107.456 16.965 108.365 17.3679 108.964 17.9233C109.563 18.4787 109.863 19.2083 109.863 20.1122C109.863 20.9344 109.62 21.6559 109.136 22.2766C108.656 22.8974 107.998 23.382 107.159 23.7305C106.326 24.0735 105.365 24.245 104.276 24.245C102.615 24.245 101.292 23.8993 100.306 23.2077C99.3263 22.5108 98.7519 21.5633 98.5831 20.3654L102.005 20.1857C102.109 20.6921 102.359 21.0787 102.757 21.3455C103.154 21.6069 103.663 21.7376 104.284 21.7376C104.894 21.7376 105.384 21.6205 105.754 21.3864C106.13 21.1468 106.321 20.8391 106.326 20.4634C106.321 20.1476 106.187 19.889 105.926 19.6875C105.664 19.4806 105.261 19.3227 104.717 19.2138L102.544 18.7809C101.319 18.5359 100.407 18.1112 99.8082 17.5067C99.2147 16.9023 98.918 16.1319 98.918 15.1953C98.918 14.3894 99.1358 13.6952 99.5714 13.1126C100.012 12.5299 100.63 12.0807 101.425 11.7649C102.226 11.4491 103.162 11.2912 104.235 11.2912C105.82 11.2912 107.067 11.6261 107.976 12.2958C108.891 12.9656 109.424 13.8776 109.577 15.032ZM122.492 15.032L119.306 15.228C119.252 14.9557 119.135 14.7107 118.955 14.4929C118.775 14.2696 118.539 14.0927 118.245 13.962C117.956 13.8259 117.61 13.7578 117.207 13.7578C116.668 13.7578 116.214 13.8722 115.843 14.1009C115.473 14.3241 115.288 14.6236 115.288 14.9993C115.288 15.2988 115.408 15.552 115.647 15.7589C115.887 15.9658 116.298 16.1319 116.881 16.2571L119.151 16.7145C120.371 16.965 121.28 17.3679 121.879 17.9233C122.478 18.4787 122.778 19.2083 122.778 20.1122C122.778 20.9344 122.535 21.6559 122.051 22.2766C121.572 22.8974 120.913 23.382 120.074 23.7305C119.241 24.0735 118.28 24.245 117.191 24.245C115.53 24.245 114.207 23.8993 113.222 23.2077C112.241 22.5108 111.667 21.5633 111.498 20.3654L114.92 20.1857C115.024 20.6921 115.274 21.0787 115.672 21.3455C116.069 21.6069 116.578 21.7376 117.199 21.7376C117.809 21.7376 118.299 21.6205 118.669 21.3864C119.045 21.1468 119.236 20.8391 119.241 20.4634C119.236 20.1476 119.102 19.889 118.841 19.6875C118.579 19.4806 118.177 19.3227 117.632 19.2138L115.459 18.7809C114.234 18.5359 113.322 18.1112 112.723 17.5067C112.13 16.9023 111.833 16.1319 111.833 15.1953C111.833 14.3894 112.051 13.6952 112.486 13.1126C112.927 12.5299 113.545 12.0807 114.34 11.7649C115.141 11.4491 116.077 11.2912 117.15 11.2912C118.735 11.2912 119.982 11.6261 120.891 12.2958C121.806 12.9656 122.339 13.8776 122.492 15.032Z" fill="black"/>
<path d="M95.9196 9.5229C95.9896 9.48725 96.0484 9.43291 96.0894 9.3659C96.1305 9.29889 96.1522 9.22182 96.1521 9.14323L96.1401 6.23159L97.6594 5.46413C97.9697 5.3074 98.205 5.03384 98.3136 4.70363C98.4221 4.37341 98.3951 4.01359 98.2384 3.70332C98.0816 3.39305 97.8081 3.15775 97.4779 3.04919C97.1476 2.94062 96.7878 2.96767 96.4776 3.1244L94.9582 3.89186L92.6218 2.15442C92.5586 2.10773 92.4837 2.07945 92.4054 2.07272C92.3271 2.06598 92.2484 2.08106 92.1782 2.11628L90.9134 2.75519C90.8512 2.78593 90.7975 2.83139 90.757 2.88761C90.7164 2.94382 90.6902 3.0091 90.6806 3.07776C90.6715 3.14581 90.679 3.21506 90.7025 3.27958C90.7259 3.34411 90.7647 3.40199 90.8154 3.44831L92.5957 5.08526L91.179 5.80091L90.6019 5.22475C90.5383 5.16218 90.4566 5.12117 90.3685 5.10753C90.2803 5.09389 90.1901 5.10831 90.1106 5.14873L89.18 5.6188C89.1299 5.6444 89.0853 5.67969 89.0489 5.72263C89.0125 5.76557 88.9849 5.81532 88.9679 5.86897C88.9335 5.97517 88.9421 6.09064 88.992 6.19049L90.7514 9.6735C90.8023 9.77424 90.8911 9.85064 90.9984 9.88589C91.1056 9.92114 91.2224 9.91235 91.3231 9.86147L92.2727 9.3818C92.3524 9.34179 92.4176 9.27772 92.4589 9.19867C92.5002 9.11961 92.5157 9.02956 92.5031 8.94125L92.3609 8.14064L93.7738 7.42691L94.0349 9.83131C94.0421 9.89959 94.0657 9.96511 94.1037 10.0223C94.1417 10.0795 94.193 10.1266 94.2532 10.1596C94.3141 10.1927 94.3822 10.2103 94.4515 10.211C94.5209 10.2117 94.5893 10.1955 94.6509 10.1637L95.9196 9.5229ZM94.555 6.72718C94.5482 6.65805 94.5246 6.59164 94.4862 6.53374C94.4478 6.47585 94.3958 6.42823 94.3348 6.39505C94.2745 6.36236 94.2071 6.34475 94.1385 6.34371C94.07 6.34266 94.0021 6.35822 93.9408 6.38905L91.7226 7.50954C91.6426 7.55006 91.5774 7.61485 91.5363 7.69466C91.4953 7.77446 91.4806 7.8652 91.4942 7.95389L91.6136 8.7565L91.3173 8.90615L89.9416 6.18279L90.2379 6.03314L90.8131 6.60551C90.8764 6.66911 90.9582 6.71109 91.0467 6.72542C91.1353 6.73975 91.2262 6.72572 91.3063 6.68531L93.5245 5.56483C93.5857 5.53379 93.6384 5.48843 93.6783 5.43259C93.7182 5.37676 93.744 5.31212 93.7534 5.24417C93.7629 5.17536 93.7555 5.10527 93.7316 5.04001C93.7078 4.97476 93.6684 4.91633 93.6168 4.86983L91.8383 3.23668L92.3245 2.99109L94.6591 4.72473C94.7221 4.7724 94.7972 4.80157 94.8759 4.80898C94.9545 4.81639 95.0337 4.80174 95.1046 4.76667L96.848 3.88601C96.9568 3.83105 97.0829 3.82157 97.1987 3.85964C97.3145 3.89771 97.4104 3.98021 97.4654 4.08901C97.5204 4.1978 97.5298 4.32397 97.4918 4.43976C97.4537 4.55555 97.3712 4.65148 97.2624 4.70644L95.519 5.58709C95.4487 5.62329 95.39 5.67834 95.3492 5.74607C95.3085 5.8138 95.2874 5.89153 95.2884 5.97056L95.2984 8.8784L94.816 9.12207L94.555 6.72718Z" fill="#F7C600"/>
</svg>
