<svg xmlns="http://www.w3.org/2000/svg" width="226.117" height="56" viewBox="0 0 226.117 56">
  <g transform="translate(-21.29 2.377)">
    <g transform="translate(198.91 -2.377)">
      <path d="M127.93,53.624l32.332-56,16.166,28-16.166,28Z" transform="translate(-127.93 2.377)" fill="#f7c600"/>
      <path d="M127.93-2.377l32.332,56,16.166-28-16.166-28Z" transform="translate(-127.93 2.377)" fill="#f7c600"/>
      <path d="M135.158,21.58l4.126-7.146,16.166,28Z" transform="translate(-123.118 13.566)" fill="#cc9200"/>
    </g>
    <g transform="translate(21.29 11.965)">
      <path d="M40.709,17.027V29.886H36.579l-.433-1.233a8.55,8.55,0,0,1-5.1,1.566,8.774,8.774,0,0,1-7.212-3.131q-2.548-3.131-2.547-8.861a14.1,14.1,0,0,1,1.349-6.346A9.793,9.793,0,0,1,26.468,7.7a11.22,11.22,0,0,1,5.815-1.466A10.867,10.867,0,0,1,37.361,7.35,6.805,6.805,0,0,1,40.478,10.5L37.411,13.13a5.434,5.434,0,0,0-2.1-1.949A6.279,6.279,0,0,0,32.35,10.5,4.948,4.948,0,0,0,28.1,12.463a9.635,9.635,0,0,0-1.449,5.763q0,8.095,5.163,8.095a7.338,7.338,0,0,0,3.6-.9v-4.63H30.551V17.027Z" transform="translate(-21.29 -6.234)"/>
      <path d="M36.108,28.92a4.481,4.481,0,0,1-1.2-3.365V6.434h4.73V25.655q0,1.2,1.466,1.2a5.3,5.3,0,0,0,1.965-.466l.7,2.465a6.739,6.739,0,0,1-4.231,1.233A4.721,4.721,0,0,1,36.108,28.92Z" transform="translate(-12.225 -6.101)"/>
      <path d="M42.264,25.258A8.56,8.56,0,0,1,39.949,18.9a8.563,8.563,0,0,1,2.315-6.363,8.751,8.751,0,0,1,6.446-2.3,8.751,8.751,0,0,1,6.446,2.3A8.563,8.563,0,0,1,57.471,18.9a8.56,8.56,0,0,1-2.315,6.363,8.751,8.751,0,0,1-6.446,2.3A8.751,8.751,0,0,1,42.264,25.258Zm9.411-2.565a6.029,6.029,0,0,0,1.066-3.8,6.032,6.032,0,0,0-1.066-3.8,3.9,3.9,0,0,0-5.93,0,6.032,6.032,0,0,0-1.066,3.8,6.029,6.029,0,0,0,1.066,3.8,3.9,3.9,0,0,0,5.93,0Z" transform="translate(-8.87 -3.572)"/>
      <path d="M58.615,29.419a5.658,5.658,0,0,1-2.082-1.732h-.067q0,1.566-.033,2.065H51.969q.1-.9.1-4.5V6.434H56.8v8.195h.067q1.3-1.866,4.732-1.865a6.082,6.082,0,0,1,5,2.215,9.54,9.54,0,0,1,1.8,6.179,10.34,10.34,0,0,1-1.865,6.562,6.205,6.205,0,0,1-5.163,2.365A6.025,6.025,0,0,1,58.615,29.419Zm4.249-4.281a7.538,7.538,0,0,0,.833-3.914,6.775,6.775,0,0,0-.833-3.7A2.761,2.761,0,0,0,60.4,16.261a3.617,3.617,0,0,0-2.547.966A3.055,3.055,0,0,0,56.8,19.559v3.564a3.188,3.188,0,0,0,.983,2.448,3.681,3.681,0,0,0,2.615.916A2.718,2.718,0,0,0,62.864,25.139Z" transform="translate(-0.87 -6.101)"/>
      <path d="M79.254,20.627H67.793a3.577,3.577,0,0,0,1.249,2.232,4.131,4.131,0,0,0,2.582.733,6.175,6.175,0,0,0,2.5-.466,6.7,6.7,0,0,0,2.132-1.6l2.532,2.4a6.865,6.865,0,0,1-3.015,2.632,10.007,10.007,0,0,1-4.447,1,8.214,8.214,0,0,1-6.161-2.282,8.638,8.638,0,0,1-2.234-6.313,8.865,8.865,0,0,1,2.234-6.4,8.078,8.078,0,0,1,6.128-2.332,7.527,7.527,0,0,1,5.846,2.315,9.1,9.1,0,0,1,2.117,6.379Zm-4.665-3.365a3.033,3.033,0,0,0-.9-2.315,3.444,3.444,0,0,0-2.465-.849,3.147,3.147,0,0,0-2.3.883,4.532,4.532,0,0,0-1.2,2.482h6.861Z" transform="translate(6.425 -3.572)"/>
      <path d="M74.608,6.434H90.731V10.7H79.971v5.563h10.06v4.264H79.971v9.227H74.608Z" transform="translate(14.199 -6.101)"/>
      <path d="M88.274,26.857a5.15,5.15,0,0,1-2.765-4.664,4.43,4.43,0,0,1,2.065-3.931A10.735,10.735,0,0,1,93.5,16.9h2.332V16.23a2.21,2.21,0,0,0-.733-1.766,2.961,2.961,0,0,0-2-.633,8.407,8.407,0,0,0-2.88.5A6.329,6.329,0,0,0,87.941,15.7L85.909,13a11.053,11.053,0,0,1,3.38-2.015,10.93,10.93,0,0,1,3.947-.75A8.324,8.324,0,0,1,98.6,11.816a5.244,5.244,0,0,1,1.965,4.314v7.5a15.859,15.859,0,0,0,.133,1.9,12.045,12.045,0,0,0,.3,1.7H96.768a6.158,6.158,0,0,1-.3-.833,6.876,6.876,0,0,1-.168-1.033h-.065a6.259,6.259,0,0,1-5.03,2.2A6.076,6.076,0,0,1,88.274,26.857Zm6.612-3.548a2.335,2.335,0,0,0,.949-1.915v-1.4H93.371a4.247,4.247,0,0,0-2.4.566,1.851,1.851,0,0,0-.833,1.632,1.675,1.675,0,0,0,.6,1.382,2.713,2.713,0,0,0,1.732.483A3.782,3.782,0,0,0,94.886,23.309Z" transform="translate(21.454 -3.572)"/>
      <path d="M96.687,14.631q0-2.831-.1-4.064h4.5a28.659,28.659,0,0,1,.133,2.931v.333h.133a5.193,5.193,0,0,1,2.282-2.615,7.255,7.255,0,0,1,3.783-.983,6.385,6.385,0,0,1,1.031.1v3.7a3.151,3.151,0,0,0-.665-.033,6.115,6.115,0,0,0-3.166.866,6.6,6.6,0,0,0-2.33,2.3,5.859,5.859,0,0,0-.868,3.1v6.962h-4.73Z" transform="translate(28.829 -3.572)"/>
      <path d="M119.833,20.627H108.372a3.577,3.577,0,0,0,1.249,2.232,4.133,4.133,0,0,0,2.583.733,6.186,6.186,0,0,0,2.5-.466,6.715,6.715,0,0,0,2.13-1.6l2.532,2.4a6.865,6.865,0,0,1-3.015,2.632,10.007,10.007,0,0,1-4.447,1,8.214,8.214,0,0,1-6.161-2.282,8.638,8.638,0,0,1-2.234-6.313,8.864,8.864,0,0,1,2.234-6.4,8.078,8.078,0,0,1,6.128-2.332,7.527,7.527,0,0,1,5.846,2.315,9.1,9.1,0,0,1,2.117,6.379Zm-4.665-3.365a3.033,3.033,0,0,0-.9-2.315A3.444,3.444,0,0,0,111.8,14.1a3.147,3.147,0,0,0-2.3.883,4.532,4.532,0,0,0-1.2,2.482h6.861Z" transform="translate(33.435 -3.572)"/>
      <path d="M114.947,14.631q0-2.831-.1-4.064h4.5a28.663,28.663,0,0,1,.133,2.931v.333h.133a5.193,5.193,0,0,1,2.282-2.615,7.251,7.251,0,0,1,3.783-.983,6.4,6.4,0,0,1,1.031.1v3.7A3.174,3.174,0,0,0,126.04,14a6.114,6.114,0,0,0-3.165.866,6.6,6.6,0,0,0-2.33,2.3,5.859,5.859,0,0,0-.868,3.1v6.962h-4.73Z" transform="translate(40.983 -3.572)"/>
    </g>
  </g>
</svg>
